<svg width="24" height="24" viewBox="0 0 24 24" fill="none" xmlns="http://www.w3.org/2000/svg">
<path fill-rule="evenodd" clip-rule="evenodd" d="M8.77074 7.74498C8.05311 7.46474 7.26305 7.42921 6.52317 7.6439C5.78328 7.85858 5.13495 8.31149 4.67878 8.93232C4.22261 9.55315 3.98411 10.3072 4.00031 11.0774C4.0165 11.8477 4.28647 12.591 4.76833 13.1921C5.25019 13.7932 5.91699 14.2185 6.66524 14.4019C7.41349 14.5853 8.20136 14.5166 8.90658 14.2064C9.61179 13.8963 10.1949 13.362 10.5655 12.6866C10.936 12.0111 11.0732 11.2323 10.9558 10.4709C10.9459 10.406 10.9488 10.3398 10.9644 10.276C10.98 10.2123 11.008 10.1522 11.0468 10.0993C11.0857 10.0463 11.1345 10.0016 11.1906 9.96753C11.2468 9.93349 11.309 9.91083 11.3739 9.90085C11.4388 9.89088 11.505 9.89378 11.5688 9.90939C11.6325 9.925 11.6926 9.95302 11.7455 9.99184C11.7985 10.0307 11.8432 10.0795 11.8773 10.1357C11.9113 10.1918 11.934 10.2541 11.9439 10.3189C12.0947 11.2979 11.9181 12.2992 11.4416 13.1675C10.9651 14.0358 10.2153 14.7226 9.30862 15.1213C8.40192 15.5199 7.38899 15.6081 6.42701 15.3723C5.46503 15.1364 4.6078 14.5896 3.98833 13.8168C3.36886 13.0439 3.0218 12.0882 3.00099 11.098C2.98019 10.1077 3.28681 9.1383 3.87327 8.34011C4.45974 7.54193 5.29325 6.95963 6.24448 6.68357C7.1957 6.40752 8.21144 6.45314 9.13409 6.81336C9.19607 6.8366 9.25281 6.87192 9.30102 6.91728C9.34923 6.96263 9.38796 7.0171 9.41495 7.07754C9.44194 7.13798 9.45665 7.20318 9.45824 7.26935C9.45982 7.33553 9.44825 7.40135 9.42418 7.46302C9.40012 7.52468 9.36405 7.58095 9.31806 7.62856C9.27208 7.67617 9.21709 7.71417 9.1563 7.74035C9.09551 7.76654 9.03012 7.78038 8.96393 7.78109C8.89775 7.7818 8.83208 7.76986 8.77074 7.74498Z" fill="white"/>
<path fill-rule="evenodd" clip-rule="evenodd" d="M6.99805 19.5002V15.5018C6.99805 15.3693 7.0507 15.2421 7.14443 15.1484C7.23816 15.0547 7.36529 15.002 7.49784 15.002C7.6304 15.002 7.75752 15.0547 7.85125 15.1484C7.94498 15.2421 7.99764 15.3693 7.99764 15.5018V19.5002C7.99764 19.6328 7.94498 19.7599 7.85125 19.8536C7.75752 19.9473 7.6304 20 7.49784 20C7.36529 20 7.23816 19.9473 7.14443 19.8536C7.0507 19.7599 6.99805 19.6328 6.99805 19.5002Z" fill="white"/>
<path fill-rule="evenodd" clip-rule="evenodd" d="M5.49902 17.0012C5.49902 16.8687 5.55168 16.7415 5.64541 16.6478C5.73914 16.5541 5.86627 16.5014 5.99882 16.5014H8.9976C9.13016 16.5014 9.25728 16.5541 9.35101 16.6478C9.44474 16.7415 9.4974 16.8687 9.4974 17.0012C9.4974 17.1338 9.44474 17.2609 9.35101 17.3546C9.25728 17.4484 9.13016 17.501 8.9976 17.501H5.99882C5.86627 17.501 5.73914 17.4484 5.64541 17.3546C5.55168 17.2609 5.49902 17.1338 5.49902 17.0012ZM14.4464 7.63652C13.8925 7.48016 13.3086 7.46285 12.7464 7.58613C12.1843 7.70942 11.6612 7.96948 11.2236 8.34328C10.786 8.71708 10.4473 9.19307 10.2377 9.72906C10.028 10.265 9.95383 10.8445 10.0217 11.416C10.0298 11.4813 10.0249 11.5476 10.0073 11.6111C9.98972 11.6746 9.95975 11.7339 9.91914 11.7858C9.87853 11.8376 9.82808 11.8809 9.77068 11.9132C9.71328 11.9455 9.65006 11.9661 9.58467 11.9738C9.51928 11.9816 9.45299 11.9764 9.38963 11.9585C9.32626 11.9405 9.26707 11.9103 9.21544 11.8694C9.16381 11.8285 9.12077 11.7778 9.08879 11.7203C9.05681 11.6627 9.03652 11.5994 9.02909 11.5339C8.91232 10.5504 9.12346 9.55573 9.62975 8.70441C10.136 7.85309 10.9092 7.19268 11.8292 6.82567C12.7491 6.45865 13.7645 6.40555 14.7178 6.67462C15.671 6.94368 16.5088 7.51985 17.1011 8.31372C17.6935 9.10759 18.0072 10.0748 17.9936 11.0652C17.9801 12.0556 17.64 13.0138 17.0262 13.7912C16.4124 14.5686 15.5592 15.1216 14.5989 15.3645C13.6387 15.6074 12.6251 15.5265 11.7155 15.1345C11.6552 15.1085 11.6006 15.0709 11.5549 15.0239C11.5091 14.9768 11.4731 14.9212 11.4488 14.8602C11.3998 14.7371 11.4017 14.5995 11.4541 14.4777C11.5065 14.356 11.6052 14.2601 11.7283 14.211C11.8515 14.162 11.9891 14.1639 12.1108 14.2163C12.5506 14.4058 13.0245 14.503 13.5033 14.5019C13.9821 14.5008 14.4556 14.4014 14.8944 14.2099C15.3332 14.0184 15.7281 13.7389 16.0546 13.3886C16.381 13.0384 16.6321 12.6248 16.7922 12.1736C16.9524 11.7224 17.0182 11.2431 16.9857 10.7654C16.9531 10.2877 16.8229 9.8218 16.603 9.39649C16.3831 8.97117 16.0782 8.59552 15.7072 8.29279C15.3363 7.99006 14.9072 7.7667 14.4464 7.63652Z" fill="white"/>
<path fill-rule="evenodd" clip-rule="evenodd" d="M16.3915 8.60812C16.2978 8.51439 16.2451 8.38729 16.2451 8.25476C16.2451 8.12223 16.2978 7.99513 16.3915 7.90141L20.1399 4.15293C20.186 4.10519 20.2412 4.06712 20.3022 4.04092C20.3631 4.01473 20.4287 4.00094 20.4951 4.00037C20.5614 3.99979 20.6273 4.01244 20.6887 4.03757C20.7501 4.0627 20.8059 4.09981 20.8528 4.14673C20.8998 4.19366 20.9369 4.24946 20.962 4.31089C20.9871 4.37231 20.9998 4.43812 20.9992 4.50449C20.9986 4.57085 20.9848 4.63643 20.9586 4.69741C20.9325 4.75839 20.8944 4.81354 20.8466 4.85964L17.0982 8.60812C17.0044 8.70182 16.8773 8.75445 16.7448 8.75445C16.6123 8.75445 16.4852 8.70182 16.3915 8.60812Z" fill="white"/>
<path fill-rule="evenodd" clip-rule="evenodd" d="M20.455 7.50508C20.3893 7.50423 20.3245 7.49046 20.2642 7.46456C20.2039 7.43865 20.1493 7.40112 20.1035 7.35411C20.0577 7.30709 20.0216 7.25151 19.9972 7.19055C19.9729 7.12958 19.9608 7.06442 19.9617 6.99878L19.9867 5.01259L18.0005 5.03758C17.8679 5.0393 17.7401 4.9883 17.6452 4.89579C17.5502 4.80327 17.4959 4.67683 17.4942 4.54428C17.4925 4.41172 17.5435 4.28391 17.636 4.18897C17.7285 4.09402 17.8549 4.03971 17.9875 4.03798L20.9993 4L20.9613 7.01178C20.9604 7.07741 20.9467 7.14224 20.9208 7.20255C20.8949 7.26287 20.8573 7.31749 20.8103 7.3633C20.7633 7.4091 20.7077 7.4452 20.6467 7.46953C20.5858 7.49386 20.5206 7.50594 20.455 7.50508Z" fill="white"/>
</svg>
