<svg width="16" height="16" viewBox="0 0 16 16" fill="none" xmlns="http://www.w3.org/2000/svg">
<path d="M10.6673 10.6667L8.00065 8L5.33398 10.6667" stroke="#F6B83D" stroke-linecap="round" stroke-linejoin="round"/>
<path d="M8 8V14" stroke="#F6B83D" stroke-linecap="round" stroke-linejoin="round"/>
<path d="M13.5943 12.26C14.2445 11.9055 14.7582 11.3446 15.0542 10.6657C15.3502 9.9869 15.4118 9.22881 15.2291 8.51112C15.0464 7.79343 14.6299 7.157 14.0454 6.70229C13.4608 6.24758 12.7415 6.00048 12.0009 5.99999H11.1609C10.9592 5.21949 10.5831 4.49488 10.0609 3.88066C9.53877 3.26643 8.88418 2.77856 8.14635 2.45373C7.40852 2.1289 6.60665 1.97557 5.80103 2.00525C4.9954 2.03493 4.20699 2.24686 3.49507 2.6251C2.78314 3.00335 2.16622 3.53806 1.6907 4.18905C1.21517 4.84003 0.89341 5.59035 0.749603 6.38359C0.605797 7.17683 0.643687 7.99235 0.860425 8.76883C1.07716 9.54532 1.46711 10.2626 2.00095 10.8667" stroke="#F6B83D" stroke-linecap="round" stroke-linejoin="round"/>
<path d="M10.6673 10.6667L8.00065 8L5.33398 10.6667" stroke="#F6B83D" stroke-linecap="round" stroke-linejoin="round"/>
</svg>
