<svg width="25.5" height="23.38" viewBox="0 0 26 24" fill="none" xmlns="http://www.w3.org/2000/svg">
<path d="M9.03125 0C7.89437 0 6.90413 0.646 6.27513 1.52788C5.64613 2.40975 5.3125 3.54875 5.3125 4.78125C5.3125 6.01375 5.64613 7.15381 6.27513 8.03569C6.90413 8.91756 7.89437 9.5625 9.03125 9.5625C10.1681 9.5625 11.1584 8.9165 11.7874 8.03463C12.4164 7.15275 12.75 6.01375 12.75 4.78125C12.75 3.54875 12.4164 2.40869 11.7874 1.52681C11.1584 0.644937 10.1681 0 9.03125 0ZM12.75 4.78125C12.75 6.01375 13.0836 7.15381 13.7126 8.03569C14.3416 8.91756 15.3329 9.5625 16.4688 9.5625C17.6056 9.5625 18.5959 8.9165 19.2249 8.03463C19.8539 7.15275 20.1875 6.01375 20.1875 4.78125C20.1875 3.54875 19.8539 2.40869 19.2249 1.52681C18.5959 0.644937 17.6056 0 16.4688 0C15.3319 0 14.3416 0.646 13.7126 1.52788C13.0836 2.40975 12.75 3.54875 12.75 4.78125ZM9.03125 2.125C9.36275 2.125 9.72825 2.29075 10.0619 2.75612C10.3913 3.22044 10.625 3.95994 10.625 4.78125C10.625 5.60256 10.3913 6.34313 10.0619 6.80638C9.72825 7.27175 9.36275 7.4375 9.03125 7.4375C8.69975 7.4375 8.33425 7.27175 8.00062 6.80638C7.67125 6.34206 7.4375 5.60256 7.4375 4.78125C7.4375 3.95994 7.67125 3.21937 8.00062 2.75612C8.33425 2.29075 8.69975 2.125 9.03125 2.125ZM16.4688 2.125C16.8002 2.125 17.1657 2.29075 17.4994 2.75612C17.8287 3.22044 18.0625 3.95994 18.0625 4.78125C18.0625 5.60256 17.8287 6.34313 17.4994 6.80638C17.1657 7.27175 16.8002 7.4375 16.4688 7.4375C16.1373 7.4375 15.7718 7.27175 15.4381 6.80638C15.1088 6.34206 14.875 5.60256 14.875 4.78125C14.875 3.95994 15.1088 3.21937 15.4381 2.75612C15.7718 2.29075 16.1373 2.125 16.4688 2.125ZM3.71875 7.4375C2.58187 7.4375 1.59163 8.0835 0.962625 8.96537C0.333625 9.84725 0 10.9862 0 12.2188C0 13.4513 0.333625 14.5913 0.962625 15.4732C1.59163 16.3551 2.58187 17 3.71875 17C4.85563 17 5.84587 16.354 6.47487 15.4721C7.10387 14.5903 7.4375 13.4513 7.4375 12.2188C7.4375 10.9862 7.10387 9.84619 6.47487 8.96431C5.84587 8.08244 4.85563 7.4375 3.71875 7.4375ZM21.7812 7.4375C20.6444 7.4375 19.6541 8.0835 19.0251 8.96537C18.3961 9.84725 18.0625 10.9862 18.0625 12.2188C18.0625 13.4513 18.3961 14.5913 19.0251 15.4732C19.6541 16.3551 20.6444 17 21.7812 17C22.9181 17 23.9084 16.354 24.5374 15.4721C25.1664 14.5903 25.5 13.4513 25.5 12.2188C25.5 10.9862 25.1664 9.84619 24.5374 8.96431C23.9084 8.08244 22.9181 7.4375 21.7812 7.4375ZM3.71875 9.5625C4.05025 9.5625 4.41575 9.72825 4.74938 10.1936C5.07875 10.6579 5.3125 11.3974 5.3125 12.2188C5.3125 13.0401 5.07875 13.7806 4.74938 14.2439C4.41575 14.7093 4.05025 14.875 3.71875 14.875C3.38725 14.875 3.02175 14.7093 2.68813 14.2439C2.35875 13.7806 2.125 13.0401 2.125 12.2188C2.125 11.3974 2.35875 10.6569 2.68813 10.1936C3.02175 9.72825 3.38725 9.5625 3.71875 9.5625ZM21.7812 9.5625C22.1127 9.5625 22.4782 9.72825 22.8119 10.1936C23.1412 10.6579 23.375 11.3974 23.375 12.2188C23.375 13.0401 23.1412 13.7806 22.8119 14.2439C22.4782 14.7093 22.1127 14.875 21.7812 14.875C21.4498 14.875 21.0843 14.7093 20.7506 14.2439C20.4213 13.7796 20.1875 13.0401 20.1875 12.2188C20.1875 11.3974 20.4213 10.6569 20.7506 10.1936C21.0843 9.72825 21.4498 9.5625 21.7812 9.5625ZM12.75 11.6875C11.3337 11.6875 10.3456 12.6066 9.86 13.4141C9.37762 14.2216 9.08012 14.8931 8.7975 15.1736C8.63494 15.3404 7.60963 15.7261 6.54075 16.2711C6.00631 16.5442 5.46762 16.9086 5.01394 17.4664C4.55706 18.0243 4.24894 18.7946 4.24894 19.6584C4.24894 21.6984 5.92769 23.3771 7.96769 23.3771C8.88781 23.3771 9.84831 23.0796 10.7886 22.814C11.7332 22.542 12.75 22.3125 12.75 22.3125C12.75 22.3125 13.7668 22.542 14.7092 22.8119C15.6506 23.0775 16.6111 23.375 17.5312 23.375C19.5712 23.375 21.25 21.6962 21.25 19.6562C21.25 18.8126 20.9387 18.0412 20.485 17.4994C20.0334 16.9543 19.4894 16.6175 18.9592 16.3359C17.8967 15.7728 16.8523 15.3266 16.7014 15.1736C16.4464 14.9218 16.1596 14.2279 15.6708 13.4162C15.1831 12.6013 14.1737 11.6875 12.75 11.6875ZM12.75 13.8125C13.4513 13.8125 13.5288 13.9825 13.8444 14.5095C14.1631 15.0354 14.4011 15.929 15.1725 16.7014C16.0491 17.5727 17.1562 17.7639 17.9626 18.1932C18.3664 18.4078 18.6745 18.6362 18.8594 18.8572C19.0432 19.0772 19.125 19.278 19.125 19.6541C19.125 20.5466 18.4237 21.2479 17.5312 21.2479C17.2231 21.2479 16.2308 21.0141 15.3064 20.7485C14.382 20.4861 13.617 20.1854 12.75 20.1854C11.883 20.1854 11.118 20.4861 10.1936 20.7485C9.26925 21.0141 8.27687 21.2479 7.96875 21.2479C7.07625 21.2479 6.375 20.5466 6.375 19.6541C6.375 19.2259 6.46425 19.006 6.64062 18.7892C6.817 18.5736 7.14212 18.36 7.53737 18.1592C8.32788 17.7554 9.42863 17.5961 10.3264 16.6982C11.1052 15.9152 11.339 14.9929 11.6546 14.4723C11.9648 13.9517 12.0392 13.8083 12.7489 13.8083L12.75 13.8125Z" fill="currentColor"/>
</svg>
