<svg width="24" height="24" viewBox="0 0 24 24" fill="none" xmlns="http://www.w3.org/2000/svg">
<path d="M10.6008 12.71C10.5071 12.617 10.4327 12.5064 10.3819 12.3846C10.3312 12.2627 10.305 12.132 10.305 12C10.305 11.868 10.3312 11.7373 10.3819 11.6154C10.4327 11.4936 10.5071 11.383 10.6008 11.29L15.1908 6.71C15.2846 6.61704 15.359 6.50644 15.4097 6.38458C15.4605 6.26272 15.4866 6.13201 15.4866 6C15.4866 5.86799 15.4605 5.73728 15.4097 5.61542C15.359 5.49356 15.2846 5.38296 15.1908 5.29C15.0035 5.10375 14.75 4.99921 14.4858 4.99921C14.2217 4.99921 13.9682 5.10375 13.7808 5.29L9.19084 9.88001C8.62903 10.4425 8.31348 11.205 8.31348 12C8.31348 12.795 8.62903 13.5575 9.19084 14.12L13.7808 18.71C13.9671 18.8948 14.2185 18.9989 14.4808 19C14.6124 19.0008 14.7429 18.9756 14.8647 18.9258C14.9866 18.876 15.0974 18.8027 15.1908 18.71C15.2846 18.6171 15.359 18.5065 15.4097 18.3846C15.4605 18.2627 15.4866 18.132 15.4866 18C15.4866 17.868 15.4605 17.7373 15.4097 17.6154C15.359 17.4936 15.2846 17.383 15.1908 17.29L10.6008 12.71Z" fill="#262626" fill-opacity="0.5"/>
</svg>
