<svg width="24" height="24" viewBox="0 0 24 24" fill="none" xmlns="http://www.w3.org/2000/svg">
<path d="M13.4001 12.71C13.4939 12.617 13.5683 12.5064 13.619 12.3846C13.6698 12.2627 13.6959 12.132 13.6959 12C13.6959 11.868 13.6698 11.7373 13.619 11.6154C13.5683 11.4936 13.4939 11.383 13.4001 11.29L8.81014 6.71C8.71641 6.61704 8.64202 6.50644 8.59125 6.38458C8.54048 6.26272 8.51434 6.13201 8.51434 6C8.51434 5.86799 8.54048 5.73728 8.59125 5.61542C8.64202 5.49356 8.71641 5.38296 8.81014 5.29C8.9975 5.10375 9.25095 4.99921 9.51514 4.99921C9.77933 4.99921 10.0328 5.10375 10.2201 5.29L14.8101 9.88C15.3719 10.4425 15.6875 11.205 15.6875 12C15.6875 12.795 15.3719 13.5575 14.8101 14.12L10.2201 18.71C10.0339 18.8948 9.78248 18.9989 9.52014 19C9.38853 19.0008 9.25807 18.9756 9.13623 18.9258C9.0144 18.876 8.90358 18.8027 8.81014 18.71C8.71641 18.6171 8.64202 18.5065 8.59125 18.3846C8.54048 18.2627 8.51434 18.132 8.51434 18C8.51434 17.868 8.54048 17.7373 8.59125 17.6154C8.64202 17.4936 8.71641 17.383 8.81014 17.29L13.4001 12.71Z" fill="#262626"/>
</svg>
