<svg width="20" height="20" viewBox="0 0 20 20" fill="none" xmlns="http://www.w3.org/2000/svg">
<path d="M9.99955 12.5C7.35782 12.5 5.00855 13.7755 3.51288 15.755C3.19097 16.181 3.03002 16.394 3.03528 16.6819C3.03935 16.9043 3.17902 17.1849 3.35402 17.3222C3.58054 17.5 3.89444 17.5 4.52224 17.5H15.4769C16.1047 17.5 16.4186 17.5 16.6451 17.3222C16.8201 17.1849 16.9598 16.9043 16.9638 16.6819C16.9691 16.394 16.8081 16.181 16.4862 15.755C14.9906 13.7755 12.6413 12.5 9.99955 12.5Z" fill="#F6B83D" stroke="#F6B83D" stroke-width="2" stroke-linecap="round" stroke-linejoin="round"/>
<path d="M10 10C12.0711 10 13.75 8.32107 13.75 6.25C13.75 4.17893 12.0711 2.5 10 2.5C7.92893 2.5 6.25 4.17893 6.25 6.25C6.25 8.32107 7.92893 10 10 10Z" fill="#F6B83D" stroke="#F6B83D" stroke-width="2" stroke-linecap="round" stroke-linejoin="round"/>
</svg>
