<svg width="20" height="20" viewBox="3.42 0 20 20" fill="none" xmlns="http://www.w3.org/2000/svg">
<path d="M8.83289 10.5917C8.75478 10.5142 8.69279 10.4221 8.65048 10.3205C8.60817 10.219 8.58639 10.11 8.58639 10C8.58639 9.89001 8.60817 9.78109 8.65048 9.67954C8.69279 9.57799 8.75478 9.48582 8.83289 9.40835L12.6579 5.59168C12.736 5.51421 12.798 5.42204 12.8403 5.32049C12.8826 5.21894 12.9044 5.11002 12.9044 5.00001C12.9044 4.89 12.8826 4.78108 12.8403 4.67953C12.798 4.57798 12.736 4.48581 12.6579 4.40834C12.5018 4.25313 12.2905 4.16602 12.0704 4.16602C11.8502 4.16602 11.639 4.25313 11.4829 4.40834L7.65789 8.23335C7.18972 8.7021 6.92676 9.33752 6.92676 10C6.92676 10.6625 7.18972 11.2979 7.65789 11.7667L11.4829 15.5917C11.6381 15.7457 11.8476 15.8324 12.0662 15.8334C12.1759 15.834 12.2846 15.813 12.3861 15.7715C12.4877 15.73 12.58 15.6689 12.6579 15.5917C12.736 15.5142 12.798 15.4221 12.8403 15.3205C12.8826 15.219 12.9044 15.11 12.9044 15C12.9044 14.89 12.8826 14.7811 12.8403 14.6795C12.798 14.578 12.736 14.4858 12.6579 14.4084L8.83289 10.5917Z" fill="#262626" fill-opacity="0.5"/>
<path d="M15.8329 10.5917C15.7548 10.5142 15.6928 10.4221 15.6505 10.3205C15.6082 10.219 15.5864 10.11 15.5864 10C15.5864 9.89001 15.6082 9.78109 15.6505 9.67954C15.6928 9.57799 15.7548 9.48582 15.8329 9.40835L19.6579 5.59168C19.736 5.51421 19.798 5.42204 19.8403 5.32049C19.8826 5.21894 19.9044 5.11002 19.9044 5.00001C19.9044 4.89 19.8826 4.78108 19.8403 4.67953C19.798 4.57798 19.736 4.48581 19.6579 4.40834C19.5018 4.25313 19.2905 4.16602 19.0704 4.16602C18.8502 4.16602 18.639 4.25313 18.4829 4.40834L14.6579 8.23335C14.1897 8.7021 13.9268 9.33752 13.9268 10C13.9268 10.6625 14.1897 11.2979 14.6579 11.7667L18.4829 15.5917C18.6381 15.7457 18.8476 15.8324 19.0662 15.8334C19.1759 15.834 19.2846 15.813 19.3861 15.7715C19.4877 15.73 19.58 15.6689 19.6579 15.5917C19.736 15.5142 19.798 15.4221 19.8403 15.3205C19.8826 15.219 19.9044 15.11 19.9044 15C19.9044 14.89 19.8826 14.7811 19.8403 14.6795C19.798 14.578 19.736 14.4858 19.6579 14.4084L15.8329 10.5917Z" fill="#262626" fill-opacity="0.5"/>
</svg>
