<svg width="20" height="20" viewBox="0 0 20 20" fill="none" xmlns="http://www.w3.org/2000/svg">
<path d="M8.83289 10.5917C8.75478 10.5142 8.69279 10.4221 8.65048 10.3205C8.60817 10.219 8.58639 10.11 8.58639 10C8.58639 9.89001 8.60817 9.78109 8.65048 9.67954C8.69279 9.57799 8.75478 9.48582 8.83289 9.40835L12.6579 5.59168C12.736 5.51421 12.798 5.42204 12.8403 5.32049C12.8826 5.21894 12.9044 5.11002 12.9044 5.00001C12.9044 4.89 12.8826 4.78108 12.8403 4.67953C12.798 4.57798 12.736 4.48581 12.6579 4.40834C12.5018 4.25313 12.2905 4.16602 12.0704 4.16602C11.8502 4.16602 11.639 4.25313 11.4829 4.40834L7.65789 8.23335C7.18972 8.7021 6.92676 9.33752 6.92676 10C6.92676 10.6625 7.18972 11.2979 7.65789 11.7667L11.4829 15.5917C11.6381 15.7457 11.8476 15.8324 12.0662 15.8334C12.1759 15.834 12.2846 15.813 12.3861 15.7715C12.4877 15.73 12.58 15.6689 12.6579 15.5917C12.736 15.5142 12.798 15.4221 12.8403 15.3205C12.8826 15.219 12.9044 15.11 12.9044 15C12.9044 14.89 12.8826 14.7811 12.8403 14.6795C12.798 14.578 12.736 14.4858 12.6579 14.4084L8.83289 10.5917Z" fill="#262626" fill-opacity="0.5"/>
</svg>
