<svg width="20" height="20" viewBox="3.58 0 20 20" fill="none" xmlns="http://www.w3.org/2000/svg">
<path d="M18.1671 10.5917C18.2452 10.5142 18.3072 10.4221 18.3495 10.3205C18.3918 10.219 18.4136 10.11 18.4136 10C18.4136 9.89001 18.3918 9.78109 18.3495 9.67954C18.3072 9.57799 18.2452 9.48582 18.1671 9.40835L14.3421 5.59168C14.264 5.51421 14.202 5.42204 14.1597 5.32049C14.1174 5.21894 14.0956 5.11002 14.0956 5.00001C14.0956 4.89 14.1174 4.78108 14.1597 4.67953C14.202 4.57798 14.264 4.48581 14.3421 4.40834C14.4982 4.25313 14.7095 4.16602 14.9296 4.16602C15.1498 4.16602 15.361 4.25313 15.5171 4.40834L19.3421 8.23335C19.8103 8.7021 20.0732 9.33752 20.0732 10C20.0732 10.6625 19.8103 11.2979 19.3421 11.7667L15.5171 15.5917C15.3619 15.7457 15.1524 15.8324 14.9338 15.8334C14.8241 15.834 14.7154 15.813 14.6139 15.7715C14.5123 15.73 14.42 15.6689 14.3421 15.5917C14.264 15.5142 14.202 15.4221 14.1597 15.3205C14.1174 15.219 14.0956 15.11 14.0956 15C14.0956 14.89 14.1174 14.7811 14.1597 14.6795C14.202 14.578 14.264 14.4858 14.3421 14.4084L18.1671 10.5917Z" fill="#262626"/>
<path d="M11.1671 10.5917C11.2452 10.5142 11.3072 10.4221 11.3495 10.3205C11.3918 10.219 11.4136 10.11 11.4136 10C11.4136 9.89001 11.3918 9.78109 11.3495 9.67954C11.3072 9.57799 11.2452 9.48582 11.1671 9.40835L7.34211 5.59168C7.264 5.51421 7.20201 5.42204 7.1597 5.32049C7.11739 5.21894 7.09561 5.11002 7.09561 5.00001C7.09561 4.89 7.11739 4.78108 7.1597 4.67953C7.20201 4.57798 7.264 4.48581 7.34211 4.40834C7.49824 4.25313 7.70945 4.16602 7.92961 4.16602C8.14976 4.16602 8.36097 4.25313 8.51711 4.40834L12.3421 8.23335C12.8103 8.7021 13.0732 9.33752 13.0732 10C13.0732 10.6625 12.8103 11.2979 12.3421 11.7667L8.51711 15.5917C8.36189 15.7457 8.15239 15.8324 7.93378 15.8334C7.8241 15.834 7.71538 15.813 7.61385 15.7715C7.51232 15.73 7.41998 15.6689 7.34211 15.5917C7.264 15.5142 7.20201 15.4221 7.1597 15.3205C7.11739 15.219 7.09561 15.11 7.09561 15C7.09561 14.89 7.11739 14.7811 7.1597 14.6795C7.20201 14.578 7.264 14.4858 7.34211 14.4084L11.1671 10.5917Z" fill="#262626"/>
</svg>
