<svg width="24" height="24" viewBox="3.6 0 24 24" fill="none" xmlns="http://www.w3.org/2000/svg">
<path d="M20.3992 12.71C20.4929 12.617 20.5673 12.5064 20.6181 12.3846C20.6688 12.2627 20.695 12.132 20.695 12C20.695 11.868 20.6688 11.7373 20.6181 11.6154C20.5673 11.4936 20.4929 11.383 20.3992 11.29L15.8092 6.71C15.7154 6.61704 15.641 6.50644 15.5903 6.38458C15.5395 6.26272 15.5134 6.13201 15.5134 6C15.5134 5.86799 15.5395 5.73728 15.5903 5.61542C15.641 5.49356 15.7154 5.38296 15.8092 5.29C15.9965 5.10375 16.25 4.99921 16.5142 4.99921C16.7783 4.99921 17.0318 5.10375 17.2192 5.29L21.8092 9.88001C22.371 10.4425 22.6865 11.205 22.6865 12C22.6865 12.795 22.371 13.5575 21.8092 14.12L17.2192 18.71C17.0329 18.8948 16.7815 18.9989 16.5192 19C16.3876 19.0008 16.2571 18.9756 16.1353 18.9258C16.0134 18.876 15.9026 18.8027 15.8092 18.71C15.7154 18.6171 15.641 18.5065 15.5903 18.3846C15.5395 18.2627 15.5134 18.132 15.5134 18C15.5134 17.868 15.5395 17.7373 15.5903 17.6154C15.641 17.4936 15.7154 17.383 15.8092 17.29L20.3992 12.71Z" fill="#262626"/>
<path d="M13.3992 12.71C13.4929 12.617 13.5673 12.5064 13.6181 12.3846C13.6688 12.2627 13.695 12.132 13.695 12C13.695 11.868 13.6688 11.7373 13.6181 11.6154C13.5673 11.4936 13.4929 11.383 13.3992 11.29L8.80916 6.71C8.71543 6.61704 8.64104 6.50644 8.59027 6.38458C8.5395 6.26272 8.51336 6.13201 8.51336 6C8.51336 5.86799 8.5395 5.73728 8.59027 5.61542C8.64104 5.49356 8.71543 5.38296 8.80916 5.29C8.99653 5.10375 9.24998 4.99921 9.51416 4.99921C9.77835 4.99921 10.0318 5.10375 10.2192 5.29L14.8092 9.88001C15.371 10.4425 15.6865 11.205 15.6865 12C15.6865 12.795 15.371 13.5575 14.8092 14.12L10.2192 18.71C10.0329 18.8948 9.7815 18.9989 9.51916 19C9.38756 19.0008 9.25709 18.9756 9.13526 18.9258C9.01342 18.876 8.9026 18.8027 8.80916 18.71C8.71543 18.6171 8.64104 18.5065 8.59027 18.3846C8.5395 18.2627 8.51336 18.132 8.51336 18C8.51336 17.868 8.5395 17.7373 8.59027 17.6154C8.64104 17.4936 8.71543 17.383 8.80916 17.29L13.3992 12.71Z" fill="#262626"/>
</svg>
