<svg xmlns="http://www.w3.org/2000/svg" style="display:none">
<symbol id="icon-burger-white" width="32" height="32" viewBox="0 0 32 32" fill="none" xmlns="http://www.w3.org/2000/svg">
<path d="M4 16H28" stroke="white" stroke-width="3" stroke-linecap="round" stroke-linejoin="round"/>
<path d="M4 8H28" stroke="white" stroke-width="3" stroke-linecap="round" stroke-linejoin="round"/>
<path d="M4 24H28" stroke="white" stroke-width="3" stroke-linecap="round" stroke-linejoin="round"/>
</symbol>

<symbol id="icon-burger" width="32" height="32" viewBox="0 0 32 32" fill="none" xmlns="http://www.w3.org/2000/svg">
<path d="M4 16H28" stroke="#262626" stroke-width="3" stroke-linecap="round" stroke-linejoin="round"/>
<path d="M4 8H28" stroke="#262626" stroke-width="3" stroke-linecap="round" stroke-linejoin="round"/>
<path d="M4 24H28" stroke="#262626" stroke-width="3" stroke-linecap="round" stroke-linejoin="round"/>
</symbol>

<symbol id="icon-calendar" width="20" height="20" viewBox="0 0 20 20" fill="none" xmlns="http://www.w3.org/2000/svg">
<path d="M15.8333 3.33333H4.16667C3.24619 3.33333 2.5 4.07952 2.5 4.99999V16.6667C2.5 17.5871 3.24619 18.3333 4.16667 18.3333H15.8333C16.7538 18.3333 17.5 17.5871 17.5 16.6667V4.99999C17.5 4.07952 16.7538 3.33333 15.8333 3.33333Z" stroke="#262626" stroke-width="1.8" stroke-linecap="round" stroke-linejoin="round"/>
<path d="M13.333 1.66667V5" stroke="#262626" stroke-width="1.8" stroke-linecap="round" stroke-linejoin="round"/>
<path d="M6.66699 1.66667V5" stroke="#262626" stroke-width="1.8" stroke-linecap="round" stroke-linejoin="round"/>
<path d="M2.5 8.33333H17.5" stroke="#262626" stroke-width="1.8" stroke-linecap="round" stroke-linejoin="round"/>
</symbol>

<symbol id="icon-check" width="22" height="22" viewBox="0 0 22 22" fill="none" xmlns="http://www.w3.org/2000/svg">
<path d="M18.3337 6.41667L8.25042 16.5L3.66699 11.9167" stroke="#08AA83" stroke-width="1.5" stroke-linecap="round" stroke-linejoin="round"/>
</symbol>

<symbol id="icon-chevron-down" width="18" height="18" viewBox="0 0 18 18" fill="none" xmlns="http://www.w3.org/2000/svg">
<path d="M4.5 6.75L9 11.25L13.5 6.75" stroke="#262626" stroke-width="2" stroke-linecap="round" stroke-linejoin="round"/>
</symbol>

<symbol id="icon-cross-small" width="18" height="18" viewBox="0 0 18 18" fill="none" xmlns="http://www.w3.org/2000/svg">
<path d="M14.25 3.75L3.75 14.25M3.75003 3.75L14.25 14.25" stroke="#262626" stroke-width="2" stroke-linecap="round" stroke-linejoin="round"/>
</symbol>

<symbol id="icon-cross" width="22" height="22" viewBox="0 0 22 22" fill="none" xmlns="http://www.w3.org/2000/svg">
<path d="M17.4163 4.58333L4.58301 17.4167M4.58305 4.58333L17.4163 17.4167" stroke="#EF2447" stroke-width="2" stroke-linecap="round" stroke-linejoin="round"/>
</symbol>

<symbol id="icon-edit" width="18" height="18" viewBox="0 0 18 18" fill="none" xmlns="http://www.w3.org/2000/svg">
<g clip-path="url(#clip0_55859_2229)">
<path d="M12.75 2.25001C12.947 2.05303 13.1808 1.89677 13.4382 1.79017C13.6956 1.68356 13.9714 1.62869 14.25 1.62869C14.5286 1.62869 14.8044 1.68356 15.0618 1.79017C15.3192 1.89677 15.553 2.05303 15.75 2.25001C15.947 2.447 16.1032 2.68085 16.2098 2.93822C16.3164 3.19559 16.3713 3.47144 16.3713 3.75001C16.3713 4.02859 16.3164 4.30444 16.2098 4.56181C16.1032 4.81918 15.947 5.05303 15.75 5.25001L5.625 15.375L1.5 16.5L2.625 12.375L12.75 2.25001Z" stroke="#F6B83D" stroke-width="1.5" stroke-linecap="round" stroke-linejoin="round"/>
</g>
<defs>
<clipPath id="clip0_55859_2229">
<rect width="18" height="18" fill="white"/>
</clipPath>
</defs>
</symbol>

<symbol id="icon-eye-off" width="22" height="22" viewBox="0 0 22 22" fill="none" xmlns="http://www.w3.org/2000/svg">
<g clip-path="url(#clip0_55848_2014)">
<path d="M16.4463 16.445C14.8793 17.6394 12.9713 18.3011 11.0013 18.3333C4.58464 18.3333 0.917969 11 0.917969 11C2.0582 8.87507 3.63968 7.01855 5.5563 5.555M9.0763 3.88666C9.70727 3.73897 10.3533 3.66514 11.0013 3.66666C17.418 3.66666 21.0846 11 21.0846 11C20.5282 12.041 19.8646 13.021 19.1046 13.9242M12.9446 12.9433C12.6929 13.2135 12.3893 13.4302 12.0519 13.5805C11.7146 13.7308 11.3505 13.8117 10.9812 13.8182C10.612 13.8247 10.2452 13.7568 9.90278 13.6184C9.56036 13.4801 9.2493 13.2743 8.98816 13.0131C8.72703 12.752 8.52116 12.4409 8.38285 12.0985C8.24454 11.7561 8.17662 11.3893 8.18313 11.0201C8.18965 10.6508 8.27047 10.2867 8.42077 9.94936C8.57108 9.61203 8.78778 9.30843 9.05797 9.05666" stroke="#F6B83D" stroke-width="2" stroke-linecap="round" stroke-linejoin="round"/>
<path d="M0.917969 0.916672L21.0846 21.0833" stroke="#F6B83D" stroke-width="2" stroke-linecap="round" stroke-linejoin="round"/>
</g>
<defs>
<clipPath id="clip0_55848_2014">
<rect width="22" height="22" fill="white"/>
</clipPath>
</defs>
</symbol>

<symbol id="icon-eye" width="22" height="22" viewBox="0 0 22 22" fill="none" xmlns="http://www.w3.org/2000/svg">
<g clip-path="url(#clip0_55848_2020)">
<path d="M0.916016 11C0.916016 11 4.58268 3.66667 10.9993 3.66667C17.416 3.66667 21.0827 11 21.0827 11C21.0827 11 17.416 18.3333 10.9993 18.3333C4.58268 18.3333 0.916016 11 0.916016 11Z" stroke="#F6B83D" stroke-width="2" stroke-linecap="round" stroke-linejoin="round"/>
<path d="M11 13.75C12.5188 13.75 13.75 12.5188 13.75 11C13.75 9.48122 12.5188 8.25 11 8.25C9.48122 8.25 8.25 9.48122 8.25 11C8.25 12.5188 9.48122 13.75 11 13.75Z" stroke="#F6B83D" stroke-width="2" stroke-linecap="round" stroke-linejoin="round"/>
</g>
<defs>
<clipPath id="clip0_55848_2020">
<rect width="22" height="22" fill="white"/>
</clipPath>
</defs>
</symbol>

<symbol id="icon-female-white" width="24" height="24" viewBox="0 0 24 24" fill="none" xmlns="http://www.w3.org/2000/svg">
<path d="M12 13C14.7614 13 17 10.7614 17 8C17 5.23858 14.7614 3 12 3C9.23858 3 7 5.23858 7 8C7 10.7614 9.23858 13 12 13ZM12 13L12 21M9 18L15 18" stroke="white" stroke-width="1.5" stroke-linecap="round" stroke-linejoin="round"/>
</symbol>

<symbol id="icon-female" width="24" height="24" viewBox="0 0 24 24" fill="none" xmlns="http://www.w3.org/2000/svg">
<path d="M12 13C14.7614 13 17 10.7614 17 8C17 5.23858 14.7614 3 12 3C9.23858 3 7 5.23858 7 8C7 10.7614 9.23858 13 12 13ZM12 13L12 21M9 18L15 18" stroke="#F43F5E" stroke-width="1.5" stroke-linecap="round" stroke-linejoin="round"/>
</symbol>

<symbol id="icon-heart" width="18" height="18" viewBox="0 0 18 18" fill="none" xmlns="http://www.w3.org/2000/svg">
<path d="M15.6306 3.4575C15.2475 3.07425 14.7927 2.77023 14.2921 2.56281C13.7915 2.35539 13.2549 2.24863 12.7131 2.24863C12.1712 2.24863 11.6347 2.35539 11.1341 2.56281C10.6335 2.77023 10.1786 3.07425 9.79558 3.4575L9.00058 4.2525L8.20558 3.4575C7.43181 2.68373 6.38235 2.24903 5.28808 2.24903C4.1938 2.24903 3.14435 2.68373 2.37058 3.4575C1.59681 4.23127 1.16211 5.28072 1.16211 6.375C1.16211 7.46927 1.59681 8.51873 2.37058 9.2925L3.16558 10.0875L9.00058 15.9225L14.8356 10.0875L15.6306 9.2925C16.0138 8.90943 16.3178 8.45461 16.5253 7.95401C16.7327 7.45342 16.8394 6.91686 16.8394 6.375C16.8394 5.83313 16.7327 5.29657 16.5253 4.79598C16.3178 4.29539 16.0138 3.84056 15.6306 3.4575Z" stroke="#F6B83D" stroke-width="1.5" stroke-linecap="round" stroke-linejoin="round"/>
</symbol>

<symbol id="icon-left-desktop" width="24" height="24" viewBox="0 0 24 24" fill="none" xmlns="http://www.w3.org/2000/svg">
<path d="M10.5999 12.71C10.5061 12.6171 10.4317 12.5065 10.381 12.3846C10.3302 12.2628 10.3041 12.1321 10.3041 12C10.3041 11.868 10.3302 11.7373 10.381 11.6155C10.4317 11.4936 10.5061 11.383 10.5999 11.29L15.1899 6.71003C15.2836 6.61707 15.358 6.50647 15.4088 6.38461C15.4595 6.26275 15.4857 6.13204 15.4857 6.00003C15.4857 5.86802 15.4595 5.73731 15.4088 5.61545C15.358 5.49359 15.2836 5.38299 15.1899 5.29003C15.0025 5.10378 14.749 4.99924 14.4849 4.99924C14.2207 4.99924 13.9672 5.10378 13.7799 5.29003L9.18986 9.88004C8.62806 10.4425 8.3125 11.205 8.3125 12C8.3125 12.795 8.62806 13.5575 9.18986 14.12L13.7799 18.7101C13.9661 18.8948 14.2175 18.999 14.4799 19.0001C14.6115 19.0008 14.7419 18.9756 14.8638 18.9258C14.9856 18.8761 15.0964 18.8027 15.1899 18.7101C15.2836 18.6171 15.358 18.5065 15.4088 18.3846C15.4595 18.2628 15.4857 18.1321 15.4857 18.0001C15.4857 17.868 15.4595 17.7373 15.4088 17.6155C15.358 17.4936 15.2836 17.383 15.1899 17.2901L10.5999 12.71Z" fill="#262626" fill-opacity="0.5"/>
</symbol>

<symbol id="icon-left-double-desktop" width="24" height="24" viewBox="3.4 0 24 24" fill="none" xmlns="http://www.w3.org/2000/svg">
<path d="M10.6008 12.71C10.5071 12.617 10.4327 12.5064 10.3819 12.3846C10.3312 12.2627 10.305 12.132 10.305 12C10.305 11.868 10.3312 11.7373 10.3819 11.6154C10.4327 11.4936 10.5071 11.383 10.6008 11.29L15.1908 6.71C15.2846 6.61704 15.359 6.50644 15.4097 6.38458C15.4605 6.26272 15.4866 6.13201 15.4866 6C15.4866 5.86799 15.4605 5.73728 15.4097 5.61542C15.359 5.49356 15.2846 5.38296 15.1908 5.29C15.0035 5.10375 14.75 4.99921 14.4858 4.99921C14.2217 4.99921 13.9682 5.10375 13.7808 5.29L9.19084 9.88001C8.62903 10.4425 8.31348 11.205 8.31348 12C8.31348 12.795 8.62903 13.5575 9.19084 14.12L13.7808 18.71C13.9671 18.8948 14.2185 18.9989 14.4808 19C14.6124 19.0008 14.7429 18.9756 14.8647 18.9258C14.9866 18.876 15.0974 18.8027 15.1908 18.71C15.2846 18.6171 15.359 18.5065 15.4097 18.3846C15.4605 18.2627 15.4866 18.132 15.4866 18C15.4866 17.868 15.4605 17.7373 15.4097 17.6154C15.359 17.4936 15.2846 17.383 15.1908 17.29L10.6008 12.71Z" fill="#262626" fill-opacity="0.5"/>
<path d="M17.5999 12.71C17.5061 12.6171 17.4317 12.5065 17.381 12.3846C17.3302 12.2628 17.3041 12.1321 17.3041 12C17.3041 11.868 17.3302 11.7373 17.381 11.6155C17.4317 11.4936 17.5061 11.383 17.5999 11.29L22.1899 6.71003C22.2836 6.61707 22.358 6.50647 22.4088 6.38461C22.4595 6.26275 22.4857 6.13204 22.4857 6.00003C22.4857 5.86802 22.4595 5.73731 22.4088 5.61545C22.358 5.49359 22.2836 5.38299 22.1899 5.29003C22.0025 5.10378 21.749 4.99924 21.4849 4.99924C21.2207 4.99924 20.9672 5.10378 20.7799 5.29003L16.1899 9.88004C15.6281 10.4425 15.3125 11.205 15.3125 12C15.3125 12.795 15.6281 13.5575 16.1899 14.12L20.7799 18.7101C20.9661 18.8948 21.2175 18.999 21.4799 19.0001C21.6115 19.0008 21.7419 18.9756 21.8638 18.9258C21.9856 18.8761 22.0964 18.8027 22.1899 18.7101C22.2836 18.6171 22.358 18.5065 22.4088 18.3846C22.4595 18.2628 22.4857 18.1321 22.4857 18.0001C22.4857 17.868 22.4595 17.7373 22.4088 17.6155C22.358 17.4936 22.2836 17.383 22.1899 17.2901L17.5999 12.71Z" fill="#262626" fill-opacity="0.5"/>
</symbol>

<symbol id="icon-left-double-mobile" width="20" height="20" viewBox="3.42 0 20 20" fill="none" xmlns="http://www.w3.org/2000/svg">
<path d="M8.83289 10.5917C8.75478 10.5142 8.69279 10.4221 8.65048 10.3205C8.60817 10.219 8.58639 10.11 8.58639 10C8.58639 9.89001 8.60817 9.78109 8.65048 9.67954C8.69279 9.57799 8.75478 9.48582 8.83289 9.40835L12.6579 5.59168C12.736 5.51421 12.798 5.42204 12.8403 5.32049C12.8826 5.21894 12.9044 5.11002 12.9044 5.00001C12.9044 4.89 12.8826 4.78108 12.8403 4.67953C12.798 4.57798 12.736 4.48581 12.6579 4.40834C12.5018 4.25313 12.2905 4.16602 12.0704 4.16602C11.8502 4.16602 11.639 4.25313 11.4829 4.40834L7.65789 8.23335C7.18972 8.7021 6.92676 9.33752 6.92676 10C6.92676 10.6625 7.18972 11.2979 7.65789 11.7667L11.4829 15.5917C11.6381 15.7457 11.8476 15.8324 12.0662 15.8334C12.1759 15.834 12.2846 15.813 12.3861 15.7715C12.4877 15.73 12.58 15.6689 12.6579 15.5917C12.736 15.5142 12.798 15.4221 12.8403 15.3205C12.8826 15.219 12.9044 15.11 12.9044 15C12.9044 14.89 12.8826 14.7811 12.8403 14.6795C12.798 14.578 12.736 14.4858 12.6579 14.4084L8.83289 10.5917Z" fill="#262626" fill-opacity="0.5"/>
<path d="M15.8329 10.5917C15.7548 10.5142 15.6928 10.4221 15.6505 10.3205C15.6082 10.219 15.5864 10.11 15.5864 10C15.5864 9.89001 15.6082 9.78109 15.6505 9.67954C15.6928 9.57799 15.7548 9.48582 15.8329 9.40835L19.6579 5.59168C19.736 5.51421 19.798 5.42204 19.8403 5.32049C19.8826 5.21894 19.9044 5.11002 19.9044 5.00001C19.9044 4.89 19.8826 4.78108 19.8403 4.67953C19.798 4.57798 19.736 4.48581 19.6579 4.40834C19.5018 4.25313 19.2905 4.16602 19.0704 4.16602C18.8502 4.16602 18.639 4.25313 18.4829 4.40834L14.6579 8.23335C14.1897 8.7021 13.9268 9.33752 13.9268 10C13.9268 10.6625 14.1897 11.2979 14.6579 11.7667L18.4829 15.5917C18.6381 15.7457 18.8476 15.8324 19.0662 15.8334C19.1759 15.834 19.2846 15.813 19.3861 15.7715C19.4877 15.73 19.58 15.6689 19.6579 15.5917C19.736 15.5142 19.798 15.4221 19.8403 15.3205C19.8826 15.219 19.9044 15.11 19.9044 15C19.9044 14.89 19.8826 14.7811 19.8403 14.6795C19.798 14.578 19.736 14.4858 19.6579 14.4084L15.8329 10.5917Z" fill="#262626" fill-opacity="0.5"/>
</symbol>

<symbol id="icon-left-mobile" width="20" height="20" viewBox="0 0 20 20" fill="none" xmlns="http://www.w3.org/2000/svg">
<path d="M8.83289 10.5917C8.75478 10.5142 8.69279 10.4221 8.65048 10.3205C8.60817 10.219 8.58639 10.11 8.58639 10C8.58639 9.89001 8.60817 9.78109 8.65048 9.67954C8.69279 9.57799 8.75478 9.48582 8.83289 9.40835L12.6579 5.59168C12.736 5.51421 12.798 5.42204 12.8403 5.32049C12.8826 5.21894 12.9044 5.11002 12.9044 5.00001C12.9044 4.89 12.8826 4.78108 12.8403 4.67953C12.798 4.57798 12.736 4.48581 12.6579 4.40834C12.5018 4.25313 12.2905 4.16602 12.0704 4.16602C11.8502 4.16602 11.639 4.25313 11.4829 4.40834L7.65789 8.23335C7.18972 8.7021 6.92676 9.33752 6.92676 10C6.92676 10.6625 7.18972 11.2979 7.65789 11.7667L11.4829 15.5917C11.6381 15.7457 11.8476 15.8324 12.0662 15.8334C12.1759 15.834 12.2846 15.813 12.3861 15.7715C12.4877 15.73 12.58 15.6689 12.6579 15.5917C12.736 15.5142 12.798 15.4221 12.8403 15.3205C12.8826 15.219 12.9044 15.11 12.9044 15C12.9044 14.89 12.8826 14.7811 12.8403 14.6795C12.798 14.578 12.736 14.4858 12.6579 14.4084L8.83289 10.5917Z" fill="#262626" fill-opacity="0.5"/>
</symbol>

<symbol id="icon-male-white" width="24" height="24" viewBox="0 0 24 24" fill="none" xmlns="http://www.w3.org/2000/svg">
<path d="M12 11C9.23858 11 7 13.2386 7 16C7 18.7614 9.23858 21 12 21C14.7614 21 17 18.7614 17 16C17 13.2386 14.7614 11 12 11ZM12 11V3M12 3L16 7M12 3L8 7" stroke="white" stroke-width="1.5" stroke-linecap="round" stroke-linejoin="round"/>
</symbol>

<symbol id="icon-male" width="24" height="24" viewBox="0 0 24 24" fill="none" xmlns="http://www.w3.org/2000/svg">
<path d="M12 11C9.23858 11 7 13.2386 7 16C7 18.7614 9.23858 21 12 21C14.7614 21 17 18.7614 17 16C17 13.2386 14.7614 11 12 11ZM12 11V3M12 3L16 7M12 3L8 7" stroke="#54ADFF" stroke-width="1.5" stroke-linecap="round" stroke-linejoin="round"/>
</symbol>

<symbol id="icon-other-white" width="24" height="24" viewBox="0 0 24 24" fill="none" xmlns="http://www.w3.org/2000/svg">
<path fill-rule="evenodd" clip-rule="evenodd" d="M8.77074 7.74498C8.05311 7.46474 7.26305 7.42921 6.52317 7.6439C5.78328 7.85858 5.13495 8.31149 4.67878 8.93232C4.22261 9.55315 3.98411 10.3072 4.00031 11.0774C4.0165 11.8477 4.28647 12.591 4.76833 13.1921C5.25019 13.7932 5.91699 14.2185 6.66524 14.4019C7.41349 14.5853 8.20136 14.5166 8.90658 14.2064C9.61179 13.8963 10.1949 13.362 10.5655 12.6866C10.936 12.0111 11.0732 11.2323 10.9558 10.4709C10.9459 10.406 10.9488 10.3398 10.9644 10.276C10.98 10.2123 11.008 10.1522 11.0468 10.0993C11.0857 10.0463 11.1345 10.0016 11.1906 9.96753C11.2468 9.93349 11.309 9.91083 11.3739 9.90085C11.4388 9.89088 11.505 9.89378 11.5688 9.90939C11.6325 9.925 11.6926 9.95302 11.7455 9.99184C11.7985 10.0307 11.8432 10.0795 11.8773 10.1357C11.9113 10.1918 11.934 10.2541 11.9439 10.3189C12.0947 11.2979 11.9181 12.2992 11.4416 13.1675C10.9651 14.0358 10.2153 14.7226 9.30862 15.1213C8.40192 15.5199 7.38899 15.6081 6.42701 15.3723C5.46503 15.1364 4.6078 14.5896 3.98833 13.8168C3.36886 13.0439 3.0218 12.0882 3.00099 11.098C2.98019 10.1077 3.28681 9.1383 3.87327 8.34011C4.45974 7.54193 5.29325 6.95963 6.24448 6.68357C7.1957 6.40752 8.21144 6.45314 9.13409 6.81336C9.19607 6.8366 9.25281 6.87192 9.30102 6.91728C9.34923 6.96263 9.38796 7.0171 9.41495 7.07754C9.44194 7.13798 9.45665 7.20318 9.45824 7.26935C9.45982 7.33553 9.44825 7.40135 9.42418 7.46302C9.40012 7.52468 9.36405 7.58095 9.31806 7.62856C9.27208 7.67617 9.21709 7.71417 9.1563 7.74035C9.09551 7.76654 9.03012 7.78038 8.96393 7.78109C8.89775 7.7818 8.83208 7.76986 8.77074 7.74498Z" fill="white"/>
<path fill-rule="evenodd" clip-rule="evenodd" d="M6.99805 19.5002V15.5018C6.99805 15.3693 7.0507 15.2421 7.14443 15.1484C7.23816 15.0547 7.36529 15.002 7.49784 15.002C7.6304 15.002 7.75752 15.0547 7.85125 15.1484C7.94498 15.2421 7.99764 15.3693 7.99764 15.5018V19.5002C7.99764 19.6328 7.94498 19.7599 7.85125 19.8536C7.75752 19.9473 7.6304 20 7.49784 20C7.36529 20 7.23816 19.9473 7.14443 19.8536C7.0507 19.7599 6.99805 19.6328 6.99805 19.5002Z" fill="white"/>
<path fill-rule="evenodd" clip-rule="evenodd" d="M5.49902 17.0012C5.49902 16.8687 5.55168 16.7415 5.64541 16.6478C5.73914 16.5541 5.86627 16.5014 5.99882 16.5014H8.9976C9.13016 16.5014 9.25728 16.5541 9.35101 16.6478C9.44474 16.7415 9.4974 16.8687 9.4974 17.0012C9.4974 17.1338 9.44474 17.2609 9.35101 17.3546C9.25728 17.4484 9.13016 17.501 8.9976 17.501H5.99882C5.86627 17.501 5.73914 17.4484 5.64541 17.3546C5.55168 17.2609 5.49902 17.1338 5.49902 17.0012ZM14.4464 7.63652C13.8925 7.48016 13.3086 7.46285 12.7464 7.58613C12.1843 7.70942 11.6612 7.96948 11.2236 8.34328C10.786 8.71708 10.4473 9.19307 10.2377 9.72906C10.028 10.265 9.95383 10.8445 10.0217 11.416C10.0298 11.4813 10.0249 11.5476 10.0073 11.6111C9.98972 11.6746 9.95975 11.7339 9.91914 11.7858C9.87853 11.8376 9.82808 11.8809 9.77068 11.9132C9.71328 11.9455 9.65006 11.9661 9.58467 11.9738C9.51928 11.9816 9.45299 11.9764 9.38963 11.9585C9.32626 11.9405 9.26707 11.9103 9.21544 11.8694C9.16381 11.8285 9.12077 11.7778 9.08879 11.7203C9.05681 11.6627 9.03652 11.5994 9.02909 11.5339C8.91232 10.5504 9.12346 9.55573 9.62975 8.70441C10.136 7.85309 10.9092 7.19268 11.8292 6.82567C12.7491 6.45865 13.7645 6.40555 14.7178 6.67462C15.671 6.94368 16.5088 7.51985 17.1011 8.31372C17.6935 9.10759 18.0072 10.0748 17.9936 11.0652C17.9801 12.0556 17.64 13.0138 17.0262 13.7912C16.4124 14.5686 15.5592 15.1216 14.5989 15.3645C13.6387 15.6074 12.6251 15.5265 11.7155 15.1345C11.6552 15.1085 11.6006 15.0709 11.5549 15.0239C11.5091 14.9768 11.4731 14.9212 11.4488 14.8602C11.3998 14.7371 11.4017 14.5995 11.4541 14.4777C11.5065 14.356 11.6052 14.2601 11.7283 14.211C11.8515 14.162 11.9891 14.1639 12.1108 14.2163C12.5506 14.4058 13.0245 14.503 13.5033 14.5019C13.9821 14.5008 14.4556 14.4014 14.8944 14.2099C15.3332 14.0184 15.7281 13.7389 16.0546 13.3886C16.381 13.0384 16.6321 12.6248 16.7922 12.1736C16.9524 11.7224 17.0182 11.2431 16.9857 10.7654C16.9531 10.2877 16.8229 9.8218 16.603 9.39649C16.3831 8.97117 16.0782 8.59552 15.7072 8.29279C15.3363 7.99006 14.9072 7.7667 14.4464 7.63652Z" fill="white"/>
<path fill-rule="evenodd" clip-rule="evenodd" d="M16.3915 8.60812C16.2978 8.51439 16.2451 8.38729 16.2451 8.25476C16.2451 8.12223 16.2978 7.99513 16.3915 7.90141L20.1399 4.15293C20.186 4.10519 20.2412 4.06712 20.3022 4.04092C20.3631 4.01473 20.4287 4.00094 20.4951 4.00037C20.5614 3.99979 20.6273 4.01244 20.6887 4.03757C20.7501 4.0627 20.8059 4.09981 20.8528 4.14673C20.8998 4.19366 20.9369 4.24946 20.962 4.31089C20.9871 4.37231 20.9998 4.43812 20.9992 4.50449C20.9986 4.57085 20.9848 4.63643 20.9586 4.69741C20.9325 4.75839 20.8944 4.81354 20.8466 4.85964L17.0982 8.60812C17.0044 8.70182 16.8773 8.75445 16.7448 8.75445C16.6123 8.75445 16.4852 8.70182 16.3915 8.60812Z" fill="white"/>
<path fill-rule="evenodd" clip-rule="evenodd" d="M20.455 7.50508C20.3893 7.50423 20.3245 7.49046 20.2642 7.46456C20.2039 7.43865 20.1493 7.40112 20.1035 7.35411C20.0577 7.30709 20.0216 7.25151 19.9972 7.19055C19.9729 7.12958 19.9608 7.06442 19.9617 6.99878L19.9867 5.01259L18.0005 5.03758C17.8679 5.0393 17.7401 4.9883 17.6452 4.89579C17.5502 4.80327 17.4959 4.67683 17.4942 4.54428C17.4925 4.41172 17.5435 4.28391 17.636 4.18897C17.7285 4.09402 17.8549 4.03971 17.9875 4.03798L20.9993 4L20.9613 7.01178C20.9604 7.07741 20.9467 7.14224 20.9208 7.20255C20.8949 7.26287 20.8573 7.31749 20.8103 7.3633C20.7633 7.4091 20.7077 7.4452 20.6467 7.46953C20.5858 7.49386 20.5206 7.50594 20.455 7.50508Z" fill="white"/>
</symbol>

<symbol id="icon-other" width="24" height="24" viewBox="0 0 24 24" fill="none" xmlns="http://www.w3.org/2000/svg">
<path fill-rule="evenodd" clip-rule="evenodd" d="M8.77074 7.74498C8.05311 7.46474 7.26305 7.42921 6.52317 7.6439C5.78328 7.85859 5.13495 8.31149 4.67878 8.93232C4.22261 9.55315 3.98411 10.3072 4.00031 11.0774C4.0165 11.8477 4.28647 12.591 4.76833 13.1921C5.25019 13.7932 5.91699 14.2185 6.66524 14.4019C7.41349 14.5853 8.20136 14.5166 8.90658 14.2064C9.61179 13.8963 10.1949 13.362 10.5655 12.6866C10.936 12.0111 11.0732 11.2323 10.9558 10.4709C10.9459 10.406 10.9488 10.3398 10.9644 10.276C10.98 10.2123 11.008 10.1522 11.0468 10.0993C11.0857 10.0463 11.1345 10.0016 11.1906 9.96753C11.2468 9.93349 11.309 9.91083 11.3739 9.90086C11.4388 9.89088 11.505 9.89378 11.5688 9.90939C11.6325 9.925 11.6926 9.95302 11.7455 9.99184C11.7985 10.0307 11.8432 10.0795 11.8773 10.1357C11.9113 10.1918 11.934 10.2541 11.9439 10.3189C12.0947 11.2979 11.9181 12.2992 11.4416 13.1675C10.9651 14.0358 10.2153 14.7226 9.30862 15.1213C8.40192 15.5199 7.38899 15.6081 6.42701 15.3723C5.46503 15.1364 4.6078 14.5896 3.98833 13.8168C3.36886 13.0439 3.0218 12.0882 3.00099 11.098C2.98019 10.1077 3.28681 9.1383 3.87327 8.34011C4.45974 7.54193 5.29325 6.95963 6.24448 6.68358C7.1957 6.40752 8.21144 6.45314 9.13409 6.81336C9.19607 6.8366 9.25281 6.87193 9.30102 6.91728C9.34923 6.96263 9.38796 7.01711 9.41495 7.07755C9.44194 7.13798 9.45665 7.20318 9.45824 7.26936C9.45982 7.33553 9.44825 7.40136 9.42418 7.46302C9.40012 7.52468 9.36405 7.58095 9.31806 7.62856C9.27208 7.67617 9.21709 7.71417 9.1563 7.74035C9.09551 7.76654 9.03012 7.78039 8.96393 7.7811C8.89775 7.7818 8.83208 7.76986 8.77074 7.74498Z" fill="#F6B83D"/>
<path fill-rule="evenodd" clip-rule="evenodd" d="M6.99805 19.5002V15.5018C6.99805 15.3693 7.0507 15.2421 7.14443 15.1484C7.23816 15.0547 7.36529 15.002 7.49784 15.002C7.6304 15.002 7.75752 15.0547 7.85125 15.1484C7.94498 15.2421 7.99764 15.3693 7.99764 15.5018V19.5002C7.99764 19.6328 7.94498 19.7599 7.85125 19.8536C7.75752 19.9473 7.6304 20 7.49784 20C7.36529 20 7.23816 19.9473 7.14443 19.8536C7.0507 19.7599 6.99805 19.6328 6.99805 19.5002Z" fill="#F6B83D"/>
<path fill-rule="evenodd" clip-rule="evenodd" d="M5.49902 17.0012C5.49902 16.8687 5.55168 16.7415 5.64541 16.6478C5.73914 16.5541 5.86627 16.5014 5.99882 16.5014H8.9976C9.13016 16.5014 9.25728 16.5541 9.35101 16.6478C9.44474 16.7415 9.4974 16.8687 9.4974 17.0012C9.4974 17.1338 9.44474 17.2609 9.35101 17.3546C9.25728 17.4484 9.13016 17.501 8.9976 17.501H5.99882C5.86627 17.501 5.73914 17.4484 5.64541 17.3546C5.55168 17.2609 5.49902 17.1338 5.49902 17.0012ZM14.4464 7.63653C13.8925 7.48016 13.3086 7.46285 12.7464 7.58614C12.1843 7.70942 11.6612 7.96949 11.2236 8.34329C10.786 8.71709 10.4473 9.19308 10.2377 9.72906C10.028 10.265 9.95383 10.8445 10.0217 11.416C10.0298 11.4813 10.0249 11.5477 10.0073 11.6111C9.98972 11.6746 9.95975 11.7339 9.91914 11.7858C9.87853 11.8376 9.82808 11.8809 9.77068 11.9132C9.71328 11.9455 9.65006 11.9661 9.58467 11.9739C9.51928 11.9816 9.45299 11.9764 9.38963 11.9585C9.32626 11.9405 9.26707 11.9103 9.21544 11.8694C9.16381 11.8285 9.12077 11.7778 9.08879 11.7203C9.05681 11.6627 9.03652 11.5994 9.02909 11.5339C8.91232 10.5504 9.12346 9.55573 9.62975 8.70441C10.136 7.85309 10.9092 7.19268 11.8292 6.82567C12.7491 6.45865 13.7645 6.40556 14.7178 6.67462C15.671 6.94368 16.5088 7.51985 17.1011 8.31372C17.6935 9.1076 18.0072 10.0748 17.9936 11.0652C17.9801 12.0556 17.64 13.0138 17.0262 13.7912C16.4124 14.5686 15.5592 15.1216 14.5989 15.3645C13.6387 15.6074 12.6251 15.5265 11.7155 15.1345C11.6552 15.1085 11.6006 15.0709 11.5549 15.0239C11.5091 14.9768 11.4731 14.9212 11.4488 14.8602C11.3998 14.7371 11.4017 14.5995 11.4541 14.4777C11.5065 14.356 11.6052 14.2601 11.7283 14.211C11.8515 14.162 11.9891 14.1639 12.1108 14.2164C12.5506 14.4058 13.0245 14.503 13.5033 14.5019C13.9821 14.5008 14.4556 14.4014 14.8944 14.2099C15.3332 14.0184 15.7281 13.7389 16.0546 13.3886C16.381 13.0384 16.6321 12.6248 16.7922 12.1736C16.9524 11.7224 17.0182 11.2431 16.9857 10.7654C16.9531 10.2877 16.8229 9.82181 16.603 9.39649C16.3831 8.97118 16.0782 8.59553 15.7072 8.2928C15.3363 7.99007 14.9072 7.7667 14.4464 7.63653Z" fill="#F6B83D"/>
<path fill-rule="evenodd" clip-rule="evenodd" d="M16.3915 8.60812C16.2978 8.51439 16.2451 8.38729 16.2451 8.25476C16.2451 8.12223 16.2978 7.99513 16.3915 7.9014L20.1399 4.15293C20.186 4.10519 20.2412 4.06711 20.3022 4.04092C20.3631 4.01473 20.4287 4.00094 20.4951 4.00036C20.5614 3.99979 20.6273 4.01243 20.6887 4.03756C20.7501 4.06269 20.8059 4.0998 20.8528 4.14673C20.8998 4.19366 20.9369 4.24946 20.962 4.31088C20.9871 4.37231 20.9998 4.43812 20.9992 4.50448C20.9986 4.57085 20.9848 4.63643 20.9586 4.69741C20.9325 4.75838 20.8944 4.81353 20.8466 4.85964L17.0982 8.60812C17.0044 8.70181 16.8773 8.75445 16.7448 8.75445C16.6123 8.75445 16.4852 8.70181 16.3915 8.60812Z" fill="#F6B83D"/>
<path fill-rule="evenodd" clip-rule="evenodd" d="M20.455 7.50508C20.3893 7.50423 20.3245 7.49046 20.2642 7.46456C20.2039 7.43865 20.1493 7.40112 20.1035 7.35411C20.0577 7.30709 20.0216 7.25151 19.9972 7.19055C19.9729 7.12958 19.9608 7.06442 19.9617 6.99878L19.9867 5.01259L18.0005 5.03758C17.8679 5.0393 17.7401 4.9883 17.6452 4.89579C17.5502 4.80327 17.4959 4.67683 17.4942 4.54428C17.4925 4.41172 17.5435 4.28391 17.636 4.18897C17.7285 4.09402 17.8549 4.03971 17.9875 4.03798L20.9993 4L20.9613 7.01178C20.9604 7.07741 20.9467 7.14224 20.9208 7.20255C20.8949 7.26287 20.8573 7.31749 20.8103 7.3633C20.7633 7.4091 20.7077 7.4452 20.6467 7.46953C20.5858 7.49386 20.5206 7.50594 20.455 7.50508Z" fill="#F6B83D"/>
</symbol>

<symbol id="icon-right-desktop" width="24" height="24" viewBox="0 0 24 24" fill="none" xmlns="http://www.w3.org/2000/svg">
<path d="M13.4001 12.71C13.4939 12.617 13.5683 12.5064 13.619 12.3846C13.6698 12.2627 13.6959 12.132 13.6959 12C13.6959 11.868 13.6698 11.7373 13.619 11.6154C13.5683 11.4936 13.4939 11.383 13.4001 11.29L8.81014 6.71C8.71641 6.61704 8.64202 6.50644 8.59125 6.38458C8.54048 6.26272 8.51434 6.13201 8.51434 6C8.51434 5.86799 8.54048 5.73728 8.59125 5.61542C8.64202 5.49356 8.71641 5.38296 8.81014 5.29C8.9975 5.10375 9.25095 4.99921 9.51514 4.99921C9.77933 4.99921 10.0328 5.10375 10.2201 5.29L14.8101 9.88C15.3719 10.4425 15.6875 11.205 15.6875 12C15.6875 12.795 15.3719 13.5575 14.8101 14.12L10.2201 18.71C10.0339 18.8948 9.78248 18.9989 9.52014 19C9.38853 19.0008 9.25807 18.9756 9.13623 18.9258C9.0144 18.876 8.90358 18.8027 8.81014 18.71C8.71641 18.6171 8.64202 18.5065 8.59125 18.3846C8.54048 18.2627 8.51434 18.132 8.51434 18C8.51434 17.868 8.54048 17.7373 8.59125 17.6154C8.64202 17.4936 8.71641 17.383 8.81014 17.29L13.4001 12.71Z" fill="#262626"/>
</symbol>

<symbol id="icon-right-double-desktop" width="24" height="24" viewBox="3.6 0 24 24" fill="none" xmlns="http://www.w3.org/2000/svg">
<path d="M20.3992 12.71C20.4929 12.617 20.5673 12.5064 20.6181 12.3846C20.6688 12.2627 20.695 12.132 20.695 12C20.695 11.868 20.6688 11.7373 20.6181 11.6154C20.5673 11.4936 20.4929 11.383 20.3992 11.29L15.8092 6.71C15.7154 6.61704 15.641 6.50644 15.5903 6.38458C15.5395 6.26272 15.5134 6.13201 15.5134 6C15.5134 5.86799 15.5395 5.73728 15.5903 5.61542C15.641 5.49356 15.7154 5.38296 15.8092 5.29C15.9965 5.10375 16.25 4.99921 16.5142 4.99921C16.7783 4.99921 17.0318 5.10375 17.2192 5.29L21.8092 9.88001C22.371 10.4425 22.6865 11.205 22.6865 12C22.6865 12.795 22.371 13.5575 21.8092 14.12L17.2192 18.71C17.0329 18.8948 16.7815 18.9989 16.5192 19C16.3876 19.0008 16.2571 18.9756 16.1353 18.9258C16.0134 18.876 15.9026 18.8027 15.8092 18.71C15.7154 18.6171 15.641 18.5065 15.5903 18.3846C15.5395 18.2627 15.5134 18.132 15.5134 18C15.5134 17.868 15.5395 17.7373 15.5903 17.6154C15.641 17.4936 15.7154 17.383 15.8092 17.29L20.3992 12.71Z" fill="#262626"/>
<path d="M13.3992 12.71C13.4929 12.617 13.5673 12.5064 13.6181 12.3846C13.6688 12.2627 13.695 12.132 13.695 12C13.695 11.868 13.6688 11.7373 13.6181 11.6154C13.5673 11.4936 13.4929 11.383 13.3992 11.29L8.80916 6.71C8.71543 6.61704 8.64104 6.50644 8.59027 6.38458C8.5395 6.26272 8.51336 6.13201 8.51336 6C8.51336 5.86799 8.5395 5.73728 8.59027 5.61542C8.64104 5.49356 8.71543 5.38296 8.80916 5.29C8.99653 5.10375 9.24998 4.99921 9.51416 4.99921C9.77835 4.99921 10.0318 5.10375 10.2192 5.29L14.8092 9.88001C15.371 10.4425 15.6865 11.205 15.6865 12C15.6865 12.795 15.371 13.5575 14.8092 14.12L10.2192 18.71C10.0329 18.8948 9.7815 18.9989 9.51916 19C9.38756 19.0008 9.25709 18.9756 9.13526 18.9258C9.01342 18.876 8.9026 18.8027 8.80916 18.71C8.71543 18.6171 8.64104 18.5065 8.59027 18.3846C8.5395 18.2627 8.51336 18.132 8.51336 18C8.51336 17.868 8.5395 17.7373 8.59027 17.6154C8.64104 17.4936 8.71543 17.383 8.80916 17.29L13.3992 12.71Z" fill="#262626"/>
</symbol>

<symbol id="icon-right-double-mobile" width="20" height="20" viewBox="3.58 0 20 20" fill="none" xmlns="http://www.w3.org/2000/svg">
<path d="M18.1671 10.5917C18.2452 10.5142 18.3072 10.4221 18.3495 10.3205C18.3918 10.219 18.4136 10.11 18.4136 10C18.4136 9.89001 18.3918 9.78109 18.3495 9.67954C18.3072 9.57799 18.2452 9.48582 18.1671 9.40835L14.3421 5.59168C14.264 5.51421 14.202 5.42204 14.1597 5.32049C14.1174 5.21894 14.0956 5.11002 14.0956 5.00001C14.0956 4.89 14.1174 4.78108 14.1597 4.67953C14.202 4.57798 14.264 4.48581 14.3421 4.40834C14.4982 4.25313 14.7095 4.16602 14.9296 4.16602C15.1498 4.16602 15.361 4.25313 15.5171 4.40834L19.3421 8.23335C19.8103 8.7021 20.0732 9.33752 20.0732 10C20.0732 10.6625 19.8103 11.2979 19.3421 11.7667L15.5171 15.5917C15.3619 15.7457 15.1524 15.8324 14.9338 15.8334C14.8241 15.834 14.7154 15.813 14.6139 15.7715C14.5123 15.73 14.42 15.6689 14.3421 15.5917C14.264 15.5142 14.202 15.4221 14.1597 15.3205C14.1174 15.219 14.0956 15.11 14.0956 15C14.0956 14.89 14.1174 14.7811 14.1597 14.6795C14.202 14.578 14.264 14.4858 14.3421 14.4084L18.1671 10.5917Z" fill="#262626"/>
<path d="M11.1671 10.5917C11.2452 10.5142 11.3072 10.4221 11.3495 10.3205C11.3918 10.219 11.4136 10.11 11.4136 10C11.4136 9.89001 11.3918 9.78109 11.3495 9.67954C11.3072 9.57799 11.2452 9.48582 11.1671 9.40835L7.34211 5.59168C7.264 5.51421 7.20201 5.42204 7.1597 5.32049C7.11739 5.21894 7.09561 5.11002 7.09561 5.00001C7.09561 4.89 7.11739 4.78108 7.1597 4.67953C7.20201 4.57798 7.264 4.48581 7.34211 4.40834C7.49824 4.25313 7.70945 4.16602 7.92961 4.16602C8.14976 4.16602 8.36097 4.25313 8.51711 4.40834L12.3421 8.23335C12.8103 8.7021 13.0732 9.33752 13.0732 10C13.0732 10.6625 12.8103 11.2979 12.3421 11.7667L8.51711 15.5917C8.36189 15.7457 8.15239 15.8324 7.93378 15.8334C7.8241 15.834 7.71538 15.813 7.61385 15.7715C7.51232 15.73 7.41998 15.6689 7.34211 15.5917C7.264 15.5142 7.20201 15.4221 7.1597 15.3205C7.11739 15.219 7.09561 15.11 7.09561 15C7.09561 14.89 7.11739 14.7811 7.1597 14.6795C7.20201 14.578 7.264 14.4858 7.34211 14.4084L11.1671 10.5917Z" fill="#262626"/>
</symbol>

<symbol id="icon-right-mobile" width="20" height="20" viewBox="0 0 20 20" fill="none" xmlns="http://www.w3.org/2000/svg">
<path d="M11.1671 10.5917C11.2452 10.5142 11.3072 10.422 11.3495 10.3205C11.3918 10.2189 11.4136 10.11 11.4136 10C11.4136 9.89001 11.3918 9.78108 11.3495 9.67953C11.3072 9.57798 11.2452 9.48582 11.1671 9.40835L7.34211 5.59168C7.264 5.51421 7.20201 5.42204 7.1597 5.32049C7.11739 5.21894 7.09561 5.11002 7.09561 5.00001C7.09561 4.89 7.11739 4.78108 7.1597 4.67953C7.20201 4.57798 7.264 4.48581 7.34211 4.40834C7.49824 4.25313 7.70945 4.16602 7.92961 4.16602C8.14976 4.16602 8.36097 4.25313 8.51711 4.40834L12.3421 8.23335C12.8103 8.7021 13.0732 9.33751 13.0732 10C13.0732 10.6625 12.8103 11.2979 12.3421 11.7667L8.51711 15.5917C8.36189 15.7456 8.15239 15.8324 7.93377 15.8334C7.8241 15.834 7.71538 15.813 7.61385 15.7715C7.51232 15.73 7.41997 15.6689 7.34211 15.5917C7.264 15.5142 7.20201 15.4221 7.1597 15.3205C7.11739 15.219 7.09561 15.11 7.09561 15C7.09561 14.89 7.11739 14.7811 7.1597 14.6795C7.20201 14.578 7.264 14.4858 7.34211 14.4084L11.1671 10.5917Z" fill="#262626"/>
</symbol>

<symbol id="icon-search" width="18" height="18" viewBox="0 0 18 18" fill="none" xmlns="http://www.w3.org/2000/svg">
<path d="M8.25 14.25C11.5637 14.25 14.25 11.5637 14.25 8.25C14.25 4.93629 11.5637 2.25 8.25 2.25C4.93629 2.25 2.25 4.93629 2.25 8.25C2.25 11.5637 4.93629 14.25 8.25 14.25Z" stroke="#262626" stroke-width="2" stroke-linecap="round" stroke-linejoin="round"/>
<path d="M15.7508 15.75L12.4883 12.4875" stroke="#262626" stroke-width="2" stroke-linecap="round" stroke-linejoin="round"/>
</symbol>

<symbol id="icon-star" width="16" height="16" viewBox="0 0 16 16" fill="none" xmlns="http://www.w3.org/2000/svg">
<g clip-path="url(#clip0_55857_2203)">
<path d="M9.7998 4.69727C9.95896 4.99878 10.249 5.20939 10.585 5.26758L14.3848 5.92383L11.6973 8.69141C11.4597 8.93598 11.3489 9.27679 11.3975 9.61426L11.9463 13.4316L8.48535 11.7305L8.36816 11.6807C8.13008 11.5961 7.86992 11.5961 7.63184 11.6807L7.51465 11.7305L4.05273 13.4316L4.60254 9.61426C4.65107 9.27679 4.54025 8.93598 4.30273 8.69141L1.61426 5.92383L5.41504 5.26758C5.75098 5.20939 6.04104 4.99878 6.2002 4.69727L8 1.28613L9.7998 4.69727Z" fill="#FFC531" stroke="#FFC531" stroke-width="1.2"/>
</g>
<defs>
<clipPath id="clip0_55857_2203">
<rect width="16" height="16" fill="white"/>
</clipPath>
</defs>
</symbol>

<symbol id="icon-trash" width="18" height="18" viewBox="0 0 18 18" fill="none" xmlns="http://www.w3.org/2000/svg">
<path d="M2.25 4.5H3.75H15.75" stroke="#F6B83D" stroke-width="1.5" stroke-linecap="round" stroke-linejoin="round"/>
<path d="M14.25 4.5V15C14.25 15.3978 14.092 15.7794 13.8107 16.0607C13.5294 16.342 13.1478 16.5 12.75 16.5H5.25C4.85218 16.5 4.47064 16.342 4.18934 16.0607C3.90804 15.7794 3.75 15.3978 3.75 15V4.5M6 4.5V3C6 2.60218 6.15804 2.22064 6.43934 1.93934C6.72065 1.65804 7.10218 1.5 7.5 1.5H10.5C10.8978 1.5 11.2794 1.65804 11.5607 1.93934C11.842 2.22064 12 2.60218 12 3V4.5" stroke="#F6B83D" stroke-width="1.5" stroke-linecap="round" stroke-linejoin="round"/>
<path d="M7.5 8.25V12.75" stroke="#F6B83D" stroke-width="1.5" stroke-linecap="round" stroke-linejoin="round"/>
<path d="M10.5 8.25V12.75" stroke="#F6B83D" stroke-width="1.5" stroke-linecap="round" stroke-linejoin="round"/>
</symbol>

<symbol id="icon-user" width="20" height="20" viewBox="0 0 20 20" fill="none" xmlns="http://www.w3.org/2000/svg">
<path d="M9.99955 12.5C7.35782 12.5 5.00855 13.7755 3.51288 15.755C3.19097 16.181 3.03002 16.394 3.03528 16.6819C3.03935 16.9043 3.17902 17.1849 3.35402 17.3222C3.58054 17.5 3.89444 17.5 4.52224 17.5H15.4769C16.1047 17.5 16.4186 17.5 16.6451 17.3222C16.8201 17.1849 16.9598 16.9043 16.9638 16.6819C16.9691 16.394 16.8081 16.181 16.4862 15.755C14.9906 13.7755 12.6413 12.5 9.99955 12.5Z" fill="#F6B83D" stroke="#F6B83D" stroke-width="2" stroke-linecap="round" stroke-linejoin="round"/>
<path d="M10 10C12.0711 10 13.75 8.32107 13.75 6.25C13.75 4.17893 12.0711 2.5 10 2.5C7.92893 2.5 6.25 4.17893 6.25 6.25C6.25 8.32107 7.92893 10 10 10Z" fill="#F6B83D" stroke="#F6B83D" stroke-width="2" stroke-linecap="round" stroke-linejoin="round"/>
</symbol>

</svg>