<svg width="190" height="56" viewBox="0 0 190 56" fill="none" xmlns="http://www.w3.org/2000/svg">
<path d="M16.475 44.75C13.8417 44.75 11.6333 44.125 9.85 42.875C8.06667 41.625 6.725 39.925 5.825 37.775C4.925 35.6083 4.475 33.1833 4.475 30.5C4.475 27.7833 4.925 25.35 5.825 23.2C6.725 21.05 8.04167 19.3583 9.775 18.125C11.525 16.875 13.6833 16.25 16.25 16.25C18.8 16.25 21.0083 16.875 22.875 18.125C24.7583 19.3583 26.2167 21.05 27.25 23.2C28.2833 25.3333 28.8 27.7667 28.8 30.5C28.8 33.2 28.2917 35.625 27.275 37.775C26.2583 39.925 24.825 41.625 22.975 42.875C21.125 44.125 18.9583 44.75 16.475 44.75ZM3.45 56V17H8.775V35.95H9.525V56H3.45ZM15.55 39.35C17.1167 39.35 18.4083 38.9583 19.425 38.175C20.4417 37.3917 21.1917 36.3333 21.675 35C22.175 33.65 22.425 32.15 22.425 30.5C22.425 28.8667 22.175 27.3833 21.675 26.05C21.175 24.7 20.4 23.6333 19.35 22.85C18.3 22.05 16.9667 21.65 15.35 21.65C13.8167 21.65 12.5667 22.025 11.6 22.775C10.6333 23.5083 9.91667 24.5417 9.45 25.875C9 27.1917 8.775 28.7333 8.775 30.5C8.775 32.25 9 33.7917 9.45 35.125C9.91667 36.4583 10.6417 37.5 11.625 38.25C12.625 38.9833 13.9333 39.35 15.55 39.35ZM44.5855 44.75C41.8522 44.75 39.4522 44.1583 37.3855 42.975C35.3189 41.7917 33.7022 40.15 32.5355 38.05C31.3855 35.95 30.8105 33.5333 30.8105 30.8C30.8105 27.85 31.3772 25.2917 32.5105 23.125C33.6439 20.9417 35.2189 19.25 37.2355 18.05C39.2522 16.85 41.5855 16.25 44.2355 16.25C47.0355 16.25 49.4105 16.9083 51.3605 18.225C53.3272 19.525 54.7855 21.3667 55.7355 23.75C56.6855 26.1333 57.0439 28.9417 56.8105 32.175H50.8355V29.975C50.8189 27.0417 50.3022 24.9 49.2855 23.55C48.2689 22.2 46.6689 21.525 44.4855 21.525C42.0189 21.525 40.1855 22.2917 38.9855 23.825C37.7855 25.3417 37.1855 27.5667 37.1855 30.5C37.1855 33.2333 37.7855 35.35 38.9855 36.85C40.1855 38.35 41.9355 39.1 44.2355 39.1C45.7189 39.1 46.9939 38.775 48.0605 38.125C49.1439 37.4583 49.9772 36.5 50.5605 35.25L56.5105 37.05C55.4772 39.4833 53.8772 41.375 51.7105 42.725C49.5605 44.075 47.1855 44.75 44.5855 44.75ZM35.2855 32.175V27.625H53.8605V32.175H35.2855ZM76.2137 44C74.4303 44.3333 72.6803 44.475 70.9637 44.425C69.2637 44.3917 67.7387 44.0833 66.3887 43.5C65.0387 42.9 64.0137 41.9583 63.3137 40.675C62.697 39.5083 62.372 38.3167 62.3387 37.1C62.3053 35.8833 62.2887 34.5083 62.2887 32.975V9.5H68.2887V32.625C68.2887 33.7083 68.297 34.6583 68.3137 35.475C68.347 36.2917 68.522 36.9583 68.8387 37.475C69.4387 38.475 70.397 39.0333 71.7137 39.15C73.0303 39.2667 74.5303 39.2 76.2137 38.95V44ZM57.3887 21.725V17H76.2137V21.725H57.3887ZM80.5195 44V7.25H86.5445V44H80.5195Z" fill="white"/>
<path fill-rule="evenodd" clip-rule="evenodd" d="M112.988 16.3964C109.469 12.2417 103.602 11.124 99.1927 14.9285C94.7838 18.733 94.1631 25.0939 97.6254 29.5935C99.843 32.4755 105.522 37.8199 109.319 41.2899C110.581 42.4431 111.212 43.0197 111.968 43.2509C112.617 43.4497 113.36 43.4497 114.009 43.2509C114.765 43.0197 115.396 42.4431 116.657 41.2899C120.454 37.8199 126.134 32.4755 128.351 29.5935C131.814 25.0939 131.269 18.693 126.784 14.9285C122.299 11.1641 116.507 12.2417 112.988 16.3964Z" fill="#F6B83D"/>
<path d="M145.8 44L136 17H142.025L148.825 36.575L155.6 17H161.65L151.85 44H145.8ZM175.435 44.75C172.702 44.75 170.302 44.1583 168.235 42.975C166.168 41.7917 164.552 40.15 163.385 38.05C162.235 35.95 161.66 33.5333 161.66 30.8C161.66 27.85 162.227 25.2917 163.36 23.125C164.493 20.9417 166.068 19.25 168.085 18.05C170.102 16.85 172.435 16.25 175.085 16.25C177.885 16.25 180.26 16.9083 182.21 18.225C184.177 19.525 185.635 21.3667 186.585 23.75C187.535 26.1333 187.893 28.9417 187.66 32.175H181.685V29.975C181.668 27.0417 181.152 24.9 180.135 23.55C179.118 22.2 177.518 21.525 175.335 21.525C172.868 21.525 171.035 22.2917 169.835 23.825C168.635 25.3417 168.035 27.5667 168.035 30.5C168.035 33.2333 168.635 35.35 169.835 36.85C171.035 38.35 172.785 39.1 175.085 39.1C176.568 39.1 177.843 38.775 178.91 38.125C179.993 37.4583 180.827 36.5 181.41 35.25L187.36 37.05C186.327 39.4833 184.727 41.375 182.56 42.725C180.41 44.075 178.035 44.75 175.435 44.75ZM166.135 32.175V27.625H184.71V32.175H166.135Z" fill="white"/>
</svg>
